<svg width="16" height="16" viewBox="0 0 16 16" fill="none" xmlns="http://www.w3.org/2000/svg">
<path d="M14.364 4.29246C14.1764 4.10499 13.9221 3.99968 13.657 3.99968C13.3918 3.99968 13.1375 4.10499 12.95 4.29246L7.99995 9.24246L3.04995 4.29246C2.86135 4.11031 2.60875 4.00951 2.34655 4.01179C2.08435 4.01407 1.83354 4.11924 1.64813 4.30465C1.46272 4.49005 1.35756 4.74087 1.35528 5.00306C1.353 5.26526 1.45379 5.51786 1.63595 5.70646L7.29295 11.3635C7.48048 11.5509 7.73479 11.6562 7.99995 11.6562C8.26512 11.6562 8.51942 11.5509 8.70695 11.3635L14.364 5.70646C14.5514 5.51894 14.6567 5.26463 14.6567 4.99946C14.6567 4.7343 14.5514 4.47999 14.364 4.29246Z" fill="black"/>
</svg>
