<svg width="17" height="16" viewBox="0 0 17 16" fill="none" xmlns="http://www.w3.org/2000/svg">
<path d="M14.5 13.332C14.5 12.1707 13.3867 11.1834 11.8333 10.8167M10.5 13.332C10.5 11.8587 8.70933 10.6654 6.5 10.6654C4.29067 10.6654 2.5 11.8587 2.5 13.332M10.5 8.66536C11.2072 8.66536 11.8855 8.38441 12.3856 7.88432C12.8857 7.38422 13.1667 6.70594 13.1667 5.9987C13.1667 5.29145 12.8857 4.61318 12.3856 4.11308C11.8855 3.61298 11.2072 3.33203 10.5 3.33203M6.5 8.66536C5.79276 8.66536 5.11448 8.38441 4.61438 7.88432C4.11428 7.38422 3.83333 6.70594 3.83333 5.9987C3.83333 5.29145 4.11428 4.61318 4.61438 4.11308C5.11448 3.61298 5.79276 3.33203 6.5 3.33203C7.20724 3.33203 7.88552 3.61298 8.38562 4.11308C8.88572 4.61318 9.16667 5.29145 9.16667 5.9987C9.16667 6.70594 8.88572 7.38422 8.38562 7.88432C7.88552 8.38441 7.20724 8.66536 6.5 8.66536Z" stroke="#999999" stroke-width="1.33333" stroke-linecap="round" stroke-linejoin="round"/>
</svg>
