<svg width="24" height="25" viewBox="0 0 24 25" fill="none" xmlns="http://www.w3.org/2000/svg">
<path fill-rule="evenodd" clip-rule="evenodd" d="M3 7.78906C3 7.52385 3.10536 7.26949 3.29289 7.08196C3.48043 6.89442 3.73478 6.78906 4 6.78906H20C20.2652 6.78906 20.5196 6.89442 20.7071 7.08196C20.8946 7.26949 21 7.52385 21 7.78906C21 8.05428 20.8946 8.30863 20.7071 8.49617C20.5196 8.68371 20.2652 8.78906 20 8.78906H4C3.73478 8.78906 3.48043 8.68371 3.29289 8.49617C3.10536 8.30863 3 8.05428 3 7.78906ZM3 12.7891C3 12.5238 3.10536 12.2695 3.29289 12.082C3.48043 11.8944 3.73478 11.7891 4 11.7891H20C20.2652 11.7891 20.5196 11.8944 20.7071 12.082C20.8946 12.2695 21 12.5238 21 12.7891C21 13.0543 20.8946 13.3086 20.7071 13.4962C20.5196 13.6837 20.2652 13.7891 20 13.7891H4C3.73478 13.7891 3.48043 13.6837 3.29289 13.4962C3.10536 13.3086 3 13.0543 3 12.7891ZM3 17.7891C3 17.5238 3.10536 17.2695 3.29289 17.082C3.48043 16.8944 3.73478 16.7891 4 16.7891H20C20.2652 16.7891 20.5196 16.8944 20.7071 17.082C20.8946 17.2695 21 17.5238 21 17.7891C21 18.0543 20.8946 18.3086 20.7071 18.4962C20.5196 18.6837 20.2652 18.7891 20 18.7891H4C3.73478 18.7891 3.48043 18.6837 3.29289 18.4962C3.10536 18.3086 3 18.0543 3 17.7891Z" fill="black"/>
</svg>
