<svg width="54" height="54" viewBox="0 0 54 54" fill="none" xmlns="http://www.w3.org/2000/svg">
<rect width="54" height="54" fill="white"/>
<path d="M22.5 15.75L21.339 18.8865C19.818 22.9995 19.0575 25.056 17.5567 26.5568C16.056 28.0575 13.9995 28.818 9.8865 30.339L6.75 31.5L9.8865 32.661C13.9995 34.182 16.056 34.9448 17.5567 36.4433C19.0575 37.9418 19.818 40.0005 21.339 44.1135L22.5 47.25L23.661 44.1135C25.182 40.0005 25.9447 37.944 27.4432 36.4433C28.9417 34.9425 31.0005 34.182 35.1135 32.661L38.25 31.5L35.1135 30.339C31.0005 28.818 28.944 28.0575 27.4432 26.5568C25.9425 25.056 25.182 22.9995 23.661 18.8865L22.5 15.75ZM40.5 6.75L40.0027 8.09325C39.3502 9.85725 39.024 10.7393 38.3828 11.3805C37.7393 12.024 36.8573 12.3502 35.0933 13.0005L33.75 13.5L35.0955 13.9973C36.8572 14.6498 37.7393 14.976 38.3805 15.6172C39.024 16.2607 39.3502 17.1427 40.0005 18.9067L40.5 20.25L40.9973 18.9067C41.6498 17.1427 41.976 16.2607 42.6172 15.6195C43.2607 14.976 44.1427 14.6498 45.9067 13.9995L47.25 13.5L45.9045 13.0027C44.1428 12.3502 43.2607 12.024 42.6195 11.3828C41.976 10.7393 41.6498 9.85725 40.9995 8.09325L40.5 6.75Z" stroke="#B21E1E" stroke-width="2.25" stroke-linejoin="round"/>
</svg>
