<svg width="54" height="54" viewBox="0 0 54 54" fill="none" xmlns="http://www.w3.org/2000/svg">
<rect width="54" height="54" fill="white"/>
<path d="M10.8559 27.0586L19.5746 35.7773C19.9871 36.1898 20.1934 36.7148 20.1934 37.3523C20.1934 37.9898 19.9871 38.5148 19.5746 38.9273C19.1621 39.3398 18.6371 39.5461 17.9996 39.5461C17.3621 39.5461 16.8371 39.3398 16.4246 38.9273L6.07465 28.5773C5.84965 28.3523 5.6899 28.1086 5.5954 27.8461C5.5009 27.5836 5.45515 27.3023 5.45815 27.0023C5.46115 26.7023 5.5084 26.4211 5.5999 26.1586C5.6914 25.8961 5.8504 25.6523 6.0769 25.4273L16.4269 15.0773C16.8769 14.6273 17.4116 14.4023 18.0311 14.4023C18.6506 14.4023 19.1846 14.6273 19.6331 15.0773C20.0816 15.5273 20.3066 16.0621 20.3081 16.6816C20.3096 17.3011 20.0846 17.8351 19.6331 18.2836L10.8559 27.0586ZM43.1434 26.9461L34.4246 18.2273C34.0121 17.8148 33.8059 17.2898 33.8059 16.6523C33.8059 16.0148 34.0121 15.4898 34.4246 15.0773C34.8371 14.6648 35.3621 14.4586 35.9996 14.4586C36.6371 14.4586 37.1621 14.6648 37.5746 15.0773L47.9246 25.4273C48.1496 25.6523 48.3094 25.8961 48.4039 26.1586C48.4984 26.4211 48.5449 26.7023 48.5434 27.0023C48.5419 27.3023 48.4954 27.5836 48.4039 27.8461C48.3124 28.1086 48.1526 28.3523 47.9246 28.5773L37.5746 38.9273C37.1246 39.3773 36.5996 39.5933 35.9996 39.5753C35.3996 39.5573 34.8746 39.3226 34.4246 38.8711C33.9746 38.4196 33.7496 37.8856 33.7496 37.2691C33.7496 36.6526 33.9746 36.1178 34.4246 35.6648L43.1434 26.9461Z" fill="#B21E1E"/>
</svg>
