<svg width="32" height="32" viewBox="0 0 32 32" fill="none" xmlns="http://www.w3.org/2000/svg">
<path d="M15.647 19.6162C16.9033 18.5602 17.8044 17.1433 18.2282 15.5578C18.6519 13.9723 18.5778 12.2948 18.0158 10.7528C17.4539 9.21087 16.4313 7.87905 15.0867 6.938C13.7421 5.99694 12.1406 5.49219 10.4995 5.49219C8.85828 5.49219 7.25682 5.99694 5.91224 6.938C4.56767 7.87905 3.54505 9.21087 2.98308 10.7528C2.42111 12.2948 2.34698 13.9723 2.77074 15.5578C3.1945 17.1433 4.09564 18.5602 5.35196 19.6162C3.39019 20.5032 1.69011 21.8809 0.415713 23.6162C0.180333 23.9369 0.0820099 24.338 0.142373 24.7313C0.202736 25.1245 0.416842 25.4777 0.737588 25.7131C1.05833 25.9484 1.45945 26.0468 1.85269 25.9864C2.24593 25.926 2.59908 25.7119 2.83446 25.3912C3.71664 24.1863 4.87042 23.2064 6.20218 22.531C7.53395 21.8555 9.00619 21.5035 10.4995 21.5035C11.9927 21.5035 13.465 21.8555 14.7967 22.531C16.1285 23.2064 17.2823 24.1863 18.1645 25.3912C18.3998 25.7121 18.7531 25.9264 19.1464 25.9868C19.5398 26.0473 19.9411 25.9491 20.262 25.7137C20.5829 25.4783 20.7971 25.1251 20.8576 24.7317C20.9181 24.3384 20.8198 23.9371 20.5845 23.6162C19.3093 21.8811 17.6089 20.5035 15.647 19.6162ZM5.49946 13.4987C5.49946 12.5098 5.79271 11.5431 6.34211 10.7208C6.89152 9.89858 7.67242 9.25772 8.58605 8.87928C9.49968 8.50084 10.505 8.40182 11.4749 8.59475C12.4448 8.78768 13.3357 9.26388 14.035 9.96314C14.7343 10.6624 15.2105 11.5533 15.4034 12.5232C15.5963 13.4931 15.4973 14.4985 15.1189 15.4121C14.7404 16.3257 14.0996 17.1066 13.2773 17.656C12.4551 18.2054 11.4884 18.4987 10.4995 18.4987C9.17338 18.4987 7.90161 17.9719 6.96393 17.0342C6.02625 16.0965 5.49946 14.8248 5.49946 13.4987ZM31.262 25.7074C31.1032 25.8241 30.9229 25.9084 30.7316 25.9554C30.5402 26.0024 30.3414 26.0112 30.1467 25.9814C29.9519 25.9516 29.7649 25.8836 29.5963 25.7815C29.4278 25.6794 29.2811 25.545 29.1645 25.3862C28.2801 24.1836 27.1259 23.2054 25.7946 22.5302C24.4633 21.8551 22.9922 21.5017 21.4995 21.4987C21.1016 21.4987 20.7201 21.3406 20.4388 21.0593C20.1575 20.778 19.9995 20.3965 19.9995 19.9987C19.9995 19.6009 20.1575 19.2193 20.4388 18.938C20.7201 18.6567 21.1016 18.4987 21.4995 18.4987C22.2101 18.4974 22.9124 18.3447 23.5594 18.0506C24.2063 17.7566 24.7832 17.328 25.2515 16.7934C25.7198 16.2588 26.0688 15.6306 26.2751 14.9505C26.4815 14.2705 26.5405 13.5543 26.4482 12.8496C26.356 12.1449 26.1146 11.468 25.7401 10.864C25.3656 10.26 24.8667 9.74278 24.2766 9.34679C23.6864 8.95081 23.0187 8.68517 22.3178 8.56759C21.6169 8.45001 20.899 8.4832 20.212 8.66493C20.0201 8.72044 19.819 8.73707 19.6206 8.71384C19.4222 8.6906 19.2305 8.62797 19.0566 8.52962C18.8827 8.43128 18.7302 8.29919 18.6081 8.14112C18.486 7.98305 18.3967 7.80217 18.3454 7.60911C18.2941 7.41605 18.2819 7.21469 18.3095 7.01684C18.3371 6.819 18.4039 6.62866 18.506 6.45699C18.6082 6.28533 18.7436 6.13579 18.9043 6.01716C19.065 5.89854 19.2478 5.8132 19.442 5.76618C21.1988 5.30068 23.0618 5.44725 24.7242 6.18177C26.3866 6.91628 27.7493 8.19496 28.5881 9.80729C29.4269 11.4196 29.6916 13.2695 29.3388 15.0524C28.986 16.8352 28.0366 18.4448 26.647 19.6162C28.6087 20.5032 30.3088 21.8809 31.5832 23.6162C31.8169 23.9364 31.9143 24.3362 31.8541 24.7281C31.7939 25.12 31.581 25.4721 31.262 25.7074Z" fill="white"/>
</svg>
