<svg width="24" height="25" viewBox="0 0 24 25" fill="none" xmlns="http://www.w3.org/2000/svg">
<path d="M12 15.5703C13.6569 15.5703 15 14.2272 15 12.5703C15 10.9135 13.6569 9.57031 12 9.57031C10.3431 9.57031 9 10.9135 9 12.5703C9 14.2272 10.3431 15.5703 12 15.5703Z" stroke="black" stroke-width="1.5"/>
<path d="M13.765 2.72231C13.398 2.57031 12.932 2.57031 12 2.57031C11.068 2.57031 10.602 2.57031 10.235 2.72231C9.99214 2.82283 9.77151 2.97021 9.58569 3.15604C9.39986 3.34186 9.25248 3.56249 9.15196 3.80531C9.05996 4.02831 9.02296 4.28931 9.00896 4.66831C9.00245 4.94224 8.92657 5.21004 8.7884 5.44667C8.65024 5.68329 8.45432 5.881 8.21896 6.02131C7.97977 6.15508 7.71055 6.22599 7.43649 6.22738C7.16244 6.22878 6.89251 6.16063 6.65196 6.02931C6.31596 5.85131 6.07296 5.75331 5.83196 5.72131C5.30628 5.65218 4.77466 5.79462 4.35396 6.11731C4.03996 6.36031 3.80596 6.76331 3.33996 7.57031C2.87396 8.37731 2.63996 8.78031 2.58896 9.17531C2.5546 9.43576 2.57188 9.70044 2.63983 9.95421C2.70778 10.208 2.82505 10.4459 2.98496 10.6543C3.13296 10.8463 3.33996 11.0073 3.66096 11.2093C4.13396 11.5063 4.43796 12.0123 4.43796 12.5703C4.43796 13.1283 4.13396 13.6343 3.66096 13.9303C3.33996 14.1333 3.13196 14.2943 2.98496 14.4863C2.82505 14.6947 2.70778 14.9326 2.63983 15.1864C2.57188 15.4402 2.5546 15.7049 2.58896 15.9653C2.64096 16.3593 2.87396 16.7633 3.33896 17.5703C3.80596 18.3773 4.03896 18.7803 4.35396 19.0233C4.5624 19.1832 4.8003 19.3005 5.05407 19.3684C5.30784 19.4364 5.57251 19.4537 5.83296 19.4193C6.07296 19.3873 6.31596 19.2893 6.65196 19.1113C6.89251 18.98 7.16244 18.9118 7.43649 18.9132C7.71055 18.9146 7.97977 18.9855 8.21896 19.1193C8.70196 19.3993 8.98896 19.9143 9.00896 20.4723C9.02296 20.8523 9.05896 21.1123 9.15196 21.3353C9.25248 21.5781 9.39986 21.7988 9.58569 21.9846C9.77151 22.1704 9.99214 22.3178 10.235 22.4183C10.602 22.5703 11.068 22.5703 12 22.5703C12.932 22.5703 13.398 22.5703 13.765 22.4183C14.0078 22.3178 14.2284 22.1704 14.4142 21.9846C14.6001 21.7988 14.7474 21.5781 14.848 21.3353C14.94 21.1123 14.977 20.8523 14.991 20.4723C15.011 19.9143 15.298 19.3983 15.781 19.1193C16.0202 18.9855 16.2894 18.9146 16.5634 18.9132C16.8375 18.9118 17.1074 18.98 17.348 19.1113C17.684 19.2893 17.927 19.3873 18.167 19.4193C18.4274 19.4537 18.6921 19.4364 18.9459 19.3684C19.1996 19.3005 19.4375 19.1832 19.646 19.0233C19.961 18.7813 20.194 18.3773 20.66 17.5703C21.126 16.7633 21.36 16.3603 21.411 15.9653C21.4453 15.7049 21.428 15.4402 21.3601 15.1864C21.2921 14.9326 21.1749 14.6947 21.015 14.4863C20.867 14.2943 20.66 14.1333 20.339 13.9313C20.1049 13.7887 19.9108 13.5891 19.7749 13.351C19.639 13.113 19.5658 12.8444 19.562 12.5703C19.562 12.0123 19.866 11.5063 20.339 11.2103C20.66 11.0073 20.868 10.8463 21.015 10.6543C21.1749 10.4459 21.2921 10.208 21.3601 9.95421C21.428 9.70044 21.4453 9.43576 21.411 9.17531C21.359 8.78131 21.126 8.37731 20.661 7.57031C20.194 6.76331 19.961 6.36031 19.646 6.11731C19.4375 5.9574 19.1996 5.84013 18.9459 5.77218C18.6921 5.70423 18.4274 5.68695 18.167 5.72131C17.927 5.75331 17.684 5.85131 17.347 6.02931C17.1065 6.16046 16.8368 6.22851 16.5629 6.22711C16.2891 6.22571 16.02 6.15491 15.781 6.02131C15.5456 5.881 15.3497 5.68329 15.2115 5.44667C15.0734 5.21004 14.9975 4.94224 14.991 4.66831C14.977 4.28831 14.941 4.02831 14.848 3.80531C14.7474 3.56249 14.6001 3.34186 14.4142 3.15604C14.2284 2.97021 14.0078 2.82283 13.765 2.72231Z" stroke="black" stroke-width="1.5"/>
</svg>
