<svg width="32" height="32" viewBox="0 0 32 32" fill="none" xmlns="http://www.w3.org/2000/svg">
<path d="M25.3332 5.33464H22.6665V4.0013C22.6665 3.64768 22.526 3.30854 22.276 3.05849C22.0259 2.80844 21.6868 2.66797 21.3332 2.66797C20.9795 2.66797 20.6404 2.80844 20.3904 3.05849C20.1403 3.30854 19.9998 3.64768 19.9998 4.0013V5.33464H11.9998V4.0013C11.9998 3.64768 11.8594 3.30854 11.6093 3.05849C11.3593 2.80844 11.0201 2.66797 10.6665 2.66797C10.3129 2.66797 9.97374 2.80844 9.72369 3.05849C9.47365 3.30854 9.33317 3.64768 9.33317 4.0013V5.33464H6.6665C5.60564 5.33464 4.58822 5.75606 3.83808 6.50621C3.08793 7.25635 2.6665 8.27377 2.6665 9.33463V25.3346C2.6665 26.3955 3.08793 27.4129 3.83808 28.1631C4.58822 28.9132 5.60564 29.3346 6.6665 29.3346H25.3332C26.394 29.3346 27.4115 28.9132 28.1616 28.1631C28.9117 27.4129 29.3332 26.3955 29.3332 25.3346V9.33463C29.3332 8.27377 28.9117 7.25635 28.1616 6.50621C27.4115 5.75606 26.394 5.33464 25.3332 5.33464ZM26.6665 25.3346C26.6665 25.6883 26.526 26.0274 26.276 26.2774C26.0259 26.5275 25.6868 26.668 25.3332 26.668H6.6665C6.31288 26.668 5.97374 26.5275 5.7237 26.2774C5.47365 26.0274 5.33317 25.6883 5.33317 25.3346V16.0013H26.6665V25.3346ZM26.6665 13.3346H5.33317V9.33463C5.33317 8.98101 5.47365 8.64187 5.7237 8.39183C5.97374 8.14178 6.31288 8.0013 6.6665 8.0013H9.33317V9.33463C9.33317 9.68826 9.47365 10.0274 9.72369 10.2774C9.97374 10.5275 10.3129 10.668 10.6665 10.668C11.0201 10.668 11.3593 10.5275 11.6093 10.2774C11.8594 10.0274 11.9998 9.68826 11.9998 9.33463V8.0013H19.9998V9.33463C19.9998 9.68826 20.1403 10.0274 20.3904 10.2774C20.6404 10.5275 20.9795 10.668 21.3332 10.668C21.6868 10.668 22.0259 10.5275 22.276 10.2774C22.526 10.0274 22.6665 9.68826 22.6665 9.33463V8.0013H25.3332C25.6868 8.0013 26.0259 8.14178 26.276 8.39183C26.526 8.64187 26.6665 8.98101 26.6665 9.33463V13.3346Z" fill="white"/>
</svg>
