<svg width="73" height="72" viewBox="0 0 73 72" fill="none" xmlns="http://www.w3.org/2000/svg">
<path opacity="0.5" d="M66.5 30H6.5V57C6.5 59.3869 7.44821 61.6761 9.13604 63.364C10.8239 65.0518 13.1131 66 15.5 66H57.5C59.8869 66 62.1761 65.0518 63.864 63.364C65.5518 61.6761 66.5 59.3869 66.5 57V30ZM21.5 24C20.7044 24 19.9413 23.6839 19.3787 23.1213C18.8161 22.5587 18.5 21.7956 18.5 21V9C18.5 8.20435 18.8161 7.44129 19.3787 6.87868C19.9413 6.31607 20.7044 6 21.5 6C22.2956 6 23.0587 6.31607 23.6213 6.87868C24.1839 7.44129 24.5 8.20435 24.5 9V21C24.5 21.7956 24.1839 22.5587 23.6213 23.1213C23.0587 23.6839 22.2956 24 21.5 24ZM51.5 24C50.7043 24 49.9413 23.6839 49.3787 23.1213C48.8161 22.5587 48.5 21.7956 48.5 21V9C48.5 8.20435 48.8161 7.44129 49.3787 6.87868C49.9413 6.31607 50.7043 6 51.5 6C52.2957 6 53.0587 6.31607 53.6213 6.87868C54.1839 7.44129 54.5 8.20435 54.5 9V21C54.5 21.7956 54.1839 22.5587 53.6213 23.1213C53.0587 23.6839 52.2957 24 51.5 24Z" fill="#B21E1E"/>
<path d="M57.5 12H54.5V21C54.5 21.7956 54.1839 22.5587 53.6213 23.1213C53.0587 23.6839 52.2957 24 51.5 24C50.7043 24 49.9413 23.6839 49.3787 23.1213C48.8161 22.5587 48.5 21.7956 48.5 21V12H24.5V21C24.5 21.7956 24.1839 22.5587 23.6213 23.1213C23.0587 23.6839 22.2956 24 21.5 24C20.7044 24 19.9413 23.6839 19.3787 23.1213C18.8161 22.5587 18.5 21.7956 18.5 21V12H15.5C13.1131 12 10.8239 12.9482 9.13604 14.636C7.44821 16.3239 6.5 18.6131 6.5 21V30H66.5V21C66.5 18.6131 65.5518 16.3239 63.864 14.636C62.1761 12.9482 59.8869 12 57.5 12Z" fill="#B21E1E"/>
</svg>
