<svg width="48" height="48" viewBox="0 0 48 48" fill="none" xmlns="http://www.w3.org/2000/svg">
<rect width="48" height="48" rx="24" fill="white"/>
<path d="M12.0535 26.8198H10.2829L10.2647 30.2879C10.0821 31.3648 9.37027 31.9672 8.14733 31.8576V32.1497H17.9309C20.4959 32.0467 22.4911 31.2344 23.979 30.0541L23.3749 28.6803C22.0955 30.2558 20.2437 31.2289 17.9309 31.31H12.0535V26.8198Z" fill="#235418"/>
<path d="M24.721 26.8198H24.502C24.1994 27.5053 23.8221 28.1296 23.3749 28.6803L23.979 30.0541C24.5315 29.6159 25.014 29.1268 25.4298 28.6045L24.721 26.8198Z" fill="#235418"/>
<path d="M10.1186 13.8966C6.25624 13.9203 4.78106 14.6554 3.3103 17.1639L3 17.0179C4.2412 13.8967 6.103 12.9475 11.9439 13.0022H17.8031C23.7171 13.6046 27.5867 17.1456 27.2581 23.5342H25.1956C25.6154 17.2004 21.691 13.8966 17.8031 13.8966H11.9439V23.4977H10.1186V13.8966Z" fill="#235418"/>
<path d="M26.5463 26.8198H24.721L25.4298 28.6045C25.8783 28.041 26.2492 27.4388 26.5463 26.8198Z" fill="#235418"/>
<path d="M34.6871 26.8381H33.1356L28.8096 37.1145L25.4298 28.6045C25.014 29.1268 24.5315 29.6159 23.979 30.0541L28.5359 40.4183H28.7731C28.9192 38.7207 31.9674 33.1353 34.6871 26.8381Z" fill="#B21E1E"/>
<path d="M24.502 26.8198H24.721L22.5489 26.8016L23.3749 28.6803C23.8221 28.1296 24.1994 27.5053 24.502 26.8198Z" fill="#B21E1E"/>
<path d="M34.4681 23.5342C37.1147 17.018 39.013 14.1158 45 14.1158V14.3896C41.2216 14.6638 38.9765 16.4157 36.1838 23.5342H34.4681Z" fill="#B21E1E"/>
<path d="M17.9857 20.8876H24.1917V21.1979C22.914 21.0154 22.3481 22.0923 23.1877 23.5342H20.8879C20.4316 21.9098 19.2086 21.0154 17.9857 21.2162V20.8876Z" fill="#B21E1E"/>
<path d="M8.82269 24.4993V25.8866H9.57106L9.60756 25.7405C9.3432 25.829 9.21749 25.8325 9.02347 25.7771V24.4993H8.82269Z" fill="#235418"/>
<path fill-rule="evenodd" clip-rule="evenodd" d="M11.0495 25.8683L11.6884 24.4628L12.309 25.8866H12.0535L11.9257 25.5215H11.3233L11.1956 25.8683H11.0495ZM11.6519 24.7731L11.3598 25.412H11.9074L11.6519 24.7731Z" fill="#235418"/>
<path fill-rule="evenodd" clip-rule="evenodd" d="M15.7953 24.5541V25.8683H16.4889C17.1278 25.6675 17.1825 24.8644 16.4889 24.5541H16.0143H15.7953ZM16.0143 25.7953V24.6271H16.3611C16.9635 24.7549 16.8722 25.7405 16.3611 25.7953H16.0143Z" fill="#235418"/>
<path fill-rule="evenodd" clip-rule="evenodd" d="M19.1904 25.9231C19.9935 25.9048 20.2855 24.5724 19.2269 24.4811C18.3872 24.4993 18.296 25.8683 19.1904 25.9231ZM19.2269 24.5906C18.6428 24.6271 18.5515 25.7953 19.2269 25.8318C19.7744 25.7771 19.9387 24.7184 19.2269 24.5906Z" fill="#235418"/>
<path d="M21.5632 24.4993V25.8866H22.3116L22.3481 25.7405C22.0837 25.829 21.958 25.8325 21.764 25.7771V24.4993H21.5632Z" fill="#235418"/>
<path d="M24.9765 24.5359C23.3885 24.1708 23.4798 26.3429 24.9948 25.8318V25.7223C24.8447 25.7963 24.7635 25.8363 24.575 25.8318C23.8083 25.7588 23.8996 24.5906 24.575 24.6089C24.7392 24.6089 24.8205 24.6503 24.9765 24.7184V24.5359Z" fill="#235418"/>
<path d="M26.6193 24.5176V25.8866H27.4954V25.7405C27.2042 25.8069 27.061 25.8225 26.8566 25.7953V25.2295H27.2947V25.1382H26.8566V24.6271C27.0038 24.5961 27.0578 24.5603 27.4407 24.6819L27.4954 24.5176H26.6193Z" fill="#235418"/>
<path d="M30.9087 24.5359L31.5476 25.9413L32.1317 24.5359H32.0039L31.6023 25.6128L31.1643 24.5359H30.9087Z" fill="#B21E1E"/>
<path d="M35.4902 24.4993H36.5671V24.6819C36.3678 24.61 36.2767 24.6016 36.1291 24.6089V25.8866H35.9283V24.6089C35.7358 24.6023 35.6429 24.6229 35.4902 24.6819V24.4993Z" fill="#B21E1E"/>
<path fill-rule="evenodd" clip-rule="evenodd" d="M37.9909 25.8683L38.6297 24.4628L39.2503 25.8866H38.9948L38.867 25.5215H38.2647L38.1369 25.8683H37.9909ZM38.5932 24.7731L38.3012 25.412H38.8488L38.5932 24.7731Z" fill="#B21E1E"/>
<path d="M33.7197 25.8866H33.9205V24.4993H33.7197V25.193V25.8866Z" fill="#B21E1E"/>
</svg>
