<svg width="25" height="25" viewBox="0 0 25 25" fill="none" xmlns="http://www.w3.org/2000/svg">
<g clip-path="url(#clip0_2082_1859)">
<path d="M24.5 12.6016C24.5 5.97398 19.1276 0.601562 12.5 0.601562C5.87242 0.601562 0.5 5.97398 0.5 12.6016C0.5 18.2295 4.37442 22.9513 9.60114 24.2484V16.2685H7.12664V12.6016H9.60114V11.0215C9.60114 6.93681 11.4495 5.04368 15.4592 5.04368C16.2198 5.04368 17.5315 5.19315 18.0681 5.34215V8.66632C17.7847 8.63661 17.2929 8.62152 16.6818 8.62152C14.7142 8.62152 13.9537 9.36699 13.9537 11.3049V12.6016H17.8734L17.2 16.2685H13.9537V24.5139C19.8957 23.7962 24.5 18.7369 24.5 12.6016Z" fill="#0866FF"/>
<path d="M17.1999 16.2678L17.8732 12.6008H13.9535V11.3042C13.9535 9.36627 14.714 8.62081 16.6817 8.62081C17.2928 8.62081 17.7845 8.6359 18.0679 8.6656V5.34144C17.5313 5.19244 16.2196 5.04297 15.459 5.04297C11.4493 5.04297 9.60096 6.93656 9.60096 11.0208V12.6008H7.12646V16.2678H9.60096V24.2477C10.5294 24.4778 11.5002 24.6008 12.4998 24.6008C12.9921 24.6008 13.4768 24.5707 13.9535 24.5131V16.2678H17.1999Z" fill="white"/>
</g>
<defs>
<clipPath id="clip0_2082_1859">
<rect width="24" height="24" fill="white" transform="translate(0.5 0.601562)"/>
</clipPath>
</defs>
</svg>
