<svg width="25" height="24" viewBox="0 0 25 24" fill="none" xmlns="http://www.w3.org/2000/svg">
<path fill-rule="evenodd" clip-rule="evenodd" d="M9.1 5.2C8.95143 5.08857 8.77477 5.02072 8.58981 5.00404C8.40484 4.98736 8.21889 5.02252 8.05279 5.10557C7.88668 5.18863 7.74698 5.31629 7.64935 5.47427C7.55171 5.63225 7.5 5.81429 7.5 6V18C7.5 18.1857 7.55171 18.3678 7.64935 18.5257C7.74698 18.6837 7.88668 18.8114 8.05279 18.8944C8.21889 18.9775 8.40484 19.0126 8.58981 18.996C8.77477 18.9793 8.95143 18.9114 9.1 18.8L17.1 12.8C17.2242 12.7069 17.325 12.5861 17.3944 12.4472C17.4639 12.3084 17.5 12.1552 17.5 12C17.5 11.8448 17.4639 11.6916 17.3944 11.5528C17.325 11.4139 17.2242 11.2931 17.1 11.2L9.1 5.2Z" fill="white"/>
</svg>
