<svg width="24" height="25" viewBox="0 0 24 25" fill="none" xmlns="http://www.w3.org/2000/svg">
<g clip-path="url(#clip0_2393_190)">
<path d="M23.7773 17.5977L17.25 24.1367L14.0977 20.9727L15.1523 19.918L17.25 22.0039L22.7227 16.543L23.7773 17.5977ZM12 8.07031H7.5V6.57031H12V8.07031ZM12 11.0703H7.5V9.57031H12V11.0703ZM7.5 12.5703H12V14.0703H7.5V12.5703ZM6 8.07031H4.5V6.57031H6V8.07031ZM6 11.0703H4.5V9.57031H6V11.0703ZM4.5 12.5703H6V14.0703H4.5V12.5703ZM13.5 8.07031V2.07031H3V23.0703H13.5V24.5703H1.5V0.570312H14.5664L21 7.00391V15.5703L19.5 17.0703V8.07031H13.5ZM15 6.57031H18.4336L15 3.13672V6.57031Z" fill="black"/>
</g>
<defs>
<clipPath id="clip0_2393_190">
<rect width="24" height="24" fill="white" transform="translate(0 0.570312)"/>
</clipPath>
</defs>
</svg>
