<svg width="24" height="25" viewBox="0 0 24 25" fill="none" xmlns="http://www.w3.org/2000/svg">
<path d="M9 21.5703H15M9 21.5703V16.5703M9 21.5703H3.6C3.44087 21.5703 3.28826 21.5071 3.17574 21.3946C3.06321 21.2821 3 21.1294 3 20.9703V17.1703C3 17.0112 3.06321 16.8586 3.17574 16.746C3.28826 16.6335 3.44087 16.5703 3.6 16.5703H9M15 21.5703V9.57031M15 21.5703H20.4C20.5591 21.5703 20.7117 21.5071 20.8243 21.3946C20.9368 21.2821 21 21.1294 21 20.9703V4.17031C21 4.01118 20.9368 3.85857 20.8243 3.74605C20.7117 3.63353 20.5591 3.57031 20.4 3.57031H15.6C15.4409 3.57031 15.2883 3.63353 15.1757 3.74605C15.0632 3.85857 15 4.01118 15 4.17031V9.57031M9 16.5703V10.1703C9 10.0112 9.06321 9.85857 9.17574 9.74605C9.28826 9.63353 9.44087 9.57031 9.6 9.57031H15" stroke="white" stroke-width="1.5"/>
</svg>
