<svg width="24" height="24" viewBox="0 0 24 24" fill="none" xmlns="http://www.w3.org/2000/svg">
<path fill-rule="evenodd" clip-rule="evenodd" d="M9.94011 12.6478L7.69211 11.8988C5.33911 11.1148 4.16211 10.7228 4.16211 10.0018C4.16211 9.28181 5.33911 8.88881 7.69211 8.10481L16.2051 5.26681C17.8611 4.71481 18.6891 4.43881 19.1261 4.87581C19.5631 5.31281 19.2871 6.14081 18.7361 7.79581L15.8971 16.3098C15.1131 18.6628 14.7211 19.8398 14.0001 19.8398C13.2801 19.8398 12.8871 18.6628 12.1031 16.3098L11.3531 14.0628L15.7071 9.70881C15.8893 9.52021 15.9901 9.26761 15.9878 9.00541C15.9855 8.74322 15.8803 8.4924 15.6949 8.30699C15.5095 8.12159 15.2587 8.01642 14.9965 8.01414C14.7343 8.01186 14.4817 8.11266 14.2931 8.29481L9.94011 12.6478Z" fill="white"/>
</svg>
