<svg width="130" height="86" viewBox="0 0 130 86" fill="none" xmlns="http://www.w3.org/2000/svg">
<path d="M28.307 43.3411H22.869L22.8129 53.993C22.2523 57.3007 20.0658 59.1508 16.3096 58.8144V59.7114H46.3592C54.2373 59.395 60.3656 56.9003 64.9354 53.2751L63.0801 49.0555C59.1506 53.8944 53.4629 56.8833 46.3592 57.1325H28.307V43.3411Z" fill="#235418"/>
<path d="M67.2145 43.3411H66.5417C65.6124 45.4466 64.4537 47.3641 63.0801 49.0555L64.9354 53.2751C66.6324 51.929 68.1145 50.4269 69.3915 48.8227L67.2145 43.3411Z" fill="#235418"/>
<path d="M22.3644 3.6484C10.5013 3.72105 5.97039 5.97897 1.45306 13.6836L0.5 13.2351C4.31226 3.6488 10.0306 0.733178 27.9707 0.901338H45.9668C64.131 2.7514 76.0163 13.6275 75.0072 33.2494H68.6721C69.9615 13.7957 57.9081 3.6484 45.9668 3.6484H27.9707V33.1373H22.3644V3.6484Z" fill="#235418"/>
<path d="M72.8207 43.3411H67.2145L69.3915 48.8227C70.7692 47.092 71.9081 45.2423 72.8207 43.3411Z" fill="#235418"/>
<path d="M97.8246 43.3972H93.0593L79.7725 74.9604L69.3915 48.8227C68.1145 50.4269 66.6324 51.929 64.9354 53.2751L78.9316 85.1078H79.6604C80.1089 79.8939 89.4713 62.7388 97.8246 43.3972Z" fill="#B21E1E"/>
<path d="M66.5417 43.3411H67.2145L60.543 43.2851L63.0801 49.0555C64.4537 47.3641 65.6124 45.4466 66.5417 43.3411Z" fill="#B21E1E"/>
<path d="M97.1519 33.2494C105.281 13.2355 111.111 4.32158 129.5 4.32158V5.16251C117.895 6.00467 110.999 11.3855 102.422 33.2494H97.1519Z" fill="#B21E1E"/>
<path d="M46.5274 25.1208H65.5887V26.0739C61.6643 25.5132 59.9263 28.8209 62.5052 33.2494H55.4413C54.0398 28.2603 50.2836 25.5132 46.5274 26.1299V25.1208Z" fill="#B21E1E"/>
<path d="M18.384 36.214V40.4747H20.6825L20.7947 40.0262C19.9827 40.2979 19.5966 40.3088 19.0007 40.1383V36.214H18.384Z" fill="#235418"/>
<path fill-rule="evenodd" clip-rule="evenodd" d="M25.2236 40.4187L27.1858 36.1018L29.0919 40.4747H28.307L27.9146 39.3535H26.0645L25.6721 40.4187H25.2236ZM27.0737 37.0549L26.1767 39.0171H27.8585L27.0737 37.0549Z" fill="#235418"/>
<path fill-rule="evenodd" clip-rule="evenodd" d="M39.7999 36.3821V40.4187H41.9302C43.8924 39.802 44.0606 37.3352 41.9302 36.3821H40.4726H39.7999ZM40.4726 40.1944V36.6064H41.5378C43.3879 36.9988 43.1076 40.0262 41.5378 40.1944H40.4726Z" fill="#235418"/>
<path fill-rule="evenodd" clip-rule="evenodd" d="M50.2275 40.5868C52.6943 40.5308 53.5913 36.4382 50.3396 36.1579C47.7608 36.214 47.4804 40.4187 50.2275 40.5868ZM50.3396 36.4943C48.5456 36.6064 48.2653 40.1944 50.3396 40.3065C52.0215 40.1383 52.5261 36.8867 50.3396 36.4943Z" fill="#235418"/>
<path d="M57.5156 36.214V40.4747H59.8142L59.9263 40.0262C59.1144 40.2979 58.7283 40.3088 58.1323 40.1383V36.214H57.5156Z" fill="#235418"/>
<path d="M67.9994 36.3261C63.1219 35.2048 63.4022 41.8763 68.0554 40.3065V39.9701C67.5946 40.1976 67.345 40.3204 66.766 40.3065C64.4113 40.0823 64.6917 36.4943 66.766 36.5503C67.2705 36.5503 67.52 36.6776 67.9994 36.8867V36.3261Z" fill="#235418"/>
<path d="M73.045 36.27V40.4747H75.736V40.0262C74.8415 40.2299 74.4016 40.2778 73.7738 40.1944V38.4565H75.1193V38.1761H73.7738V36.6064C74.226 36.5112 74.3918 36.4012 75.5678 36.7746L75.736 36.27H73.045Z" fill="#235418"/>
<path d="M86.2197 36.3261L88.1819 40.6429L89.9759 36.3261H89.5834L88.3501 39.6338L87.0046 36.3261H86.2197Z" fill="#B21E1E"/>
<path d="M100.291 36.214H103.599V36.7746C102.987 36.5539 102.707 36.528 102.254 36.5503V40.4747H101.637V36.5503C101.046 36.53 100.76 36.5934 100.291 36.7746V36.214Z" fill="#B21E1E"/>
<path fill-rule="evenodd" clip-rule="evenodd" d="M107.972 40.4187L109.934 36.1018L111.84 40.4747H111.055L110.663 39.3535H108.813L108.42 40.4187H107.972ZM109.822 37.0549L108.925 39.0171H110.607L109.822 37.0549Z" fill="#B21E1E"/>
<path d="M94.8533 40.4747H95.47V36.214H94.8533V38.3443V40.4747Z" fill="#B21E1E"/>
</svg>
