<svg width="24" height="25" viewBox="0 0 24 25" fill="none" xmlns="http://www.w3.org/2000/svg">
<path d="M14 13.5703C13.1667 13.5703 12.4583 13.2786 11.875 12.6953C11.2917 12.112 11 11.4036 11 10.5703C11 9.73698 11.2917 9.02865 11.875 8.44531C12.4583 7.86198 13.1667 7.57031 14 7.57031C14.8333 7.57031 15.5417 7.86198 16.125 8.44531C16.7083 9.02865 17 9.73698 17 10.5703C17 11.4036 16.7083 12.112 16.125 12.6953C15.5417 13.2786 14.8333 13.5703 14 13.5703ZM7 16.5703C6.45 16.5703 5.97933 16.3746 5.588 15.9833C5.19667 15.592 5.00067 15.121 5 14.5703V6.57031C5 6.02031 5.196 5.54965 5.588 5.15831C5.98 4.76698 6.45067 4.57098 7 4.57031H21C21.55 4.57031 22.021 4.76631 22.413 5.15831C22.805 5.55031 23.0007 6.02098 23 6.57031V14.5703C23 15.1203 22.8043 15.5913 22.413 15.9833C22.0217 16.3753 21.5507 16.571 21 16.5703H7ZM9 14.5703H19C19 14.0203 19.196 13.5496 19.588 13.1583C19.98 12.767 20.4507 12.571 21 12.5703V8.57031C20.45 8.57031 19.9793 8.37465 19.588 7.98331C19.1967 7.59198 19.0007 7.12098 19 6.57031H9C9 7.12031 8.80433 7.59131 8.413 7.98331C8.02167 8.37531 7.55067 8.57098 7 8.57031V12.5703C7.55 12.5703 8.021 12.7663 8.413 13.1583C8.805 13.5503 9.00067 14.021 9 14.5703ZM19 20.5703H3C2.45 20.5703 1.97933 20.3746 1.588 19.9833C1.19667 19.592 1.00067 19.121 1 18.5703V8.57031C1 8.28698 1.096 8.04965 1.288 7.85831C1.48 7.66698 1.71733 7.57098 2 7.57031C2.28267 7.56965 2.52033 7.66565 2.713 7.85831C2.90567 8.05098 3.00133 8.28831 3 8.57031V18.5703H19C19.2833 18.5703 19.521 18.6663 19.713 18.8583C19.905 19.0503 20.0007 19.2876 20 19.5703C19.9993 19.853 19.9033 20.0906 19.712 20.2833C19.5207 20.476 19.2833 20.5716 19 20.5703Z" fill="black"/>
</svg>
