<svg width="24" height="25" viewBox="0 0 24 25" fill="none" xmlns="http://www.w3.org/2000/svg">
<path d="M14 21.5703C13.7348 21.5703 13.4804 21.465 13.2929 21.2774C13.1054 21.0899 13 20.8355 13 20.5703V12.5703C13 12.3051 13.1054 12.0507 13.2929 11.8632C13.4804 11.6757 13.7348 11.5703 14 11.5703H20C20.2652 11.5703 20.5196 11.6757 20.7071 11.8632C20.8946 12.0507 21 12.3051 21 12.5703V20.5703C21 20.8355 20.8946 21.0899 20.7071 21.2774C20.5196 21.465 20.2652 21.5703 20 21.5703H14ZM4 13.5703C3.73478 13.5703 3.48043 13.465 3.29289 13.2774C3.10536 13.0899 3 12.8355 3 12.5703V4.57031C3 4.3051 3.10536 4.05074 3.29289 3.86321C3.48043 3.67567 3.73478 3.57031 4 3.57031H10C10.2652 3.57031 10.5196 3.67567 10.7071 3.86321C10.8946 4.05074 11 4.3051 11 4.57031V12.5703C11 12.8355 10.8946 13.0899 10.7071 13.2774C10.5196 13.465 10.2652 13.5703 10 13.5703H4ZM9 11.5703V5.57031H5V11.5703H9ZM4 21.5703C3.73478 21.5703 3.48043 21.465 3.29289 21.2774C3.10536 21.0899 3 20.8355 3 20.5703V16.5703C3 16.3051 3.10536 16.0507 3.29289 15.8632C3.48043 15.6757 3.73478 15.5703 4 15.5703H10C10.2652 15.5703 10.5196 15.6757 10.7071 15.8632C10.8946 16.0507 11 16.3051 11 16.5703V20.5703C11 20.8355 10.8946 21.0899 10.7071 21.2774C10.5196 21.465 10.2652 21.5703 10 21.5703H4ZM5 19.5703H9V17.5703H5V19.5703ZM15 19.5703H19V13.5703H15V19.5703ZM13 4.57031C13 4.3051 13.1054 4.05074 13.2929 3.86321C13.4804 3.67567 13.7348 3.57031 14 3.57031H20C20.2652 3.57031 20.5196 3.67567 20.7071 3.86321C20.8946 4.05074 21 4.3051 21 4.57031V8.57031C21 8.83553 20.8946 9.08988 20.7071 9.27742C20.5196 9.46496 20.2652 9.57031 20 9.57031H14C13.7348 9.57031 13.4804 9.46496 13.2929 9.27742C13.1054 9.08988 13 8.83553 13 8.57031V4.57031ZM15 5.57031V7.57031H19V5.57031H15Z" fill="black"/>
</svg>
