<svg width="54" height="54" viewBox="0 0 54 54" fill="none" xmlns="http://www.w3.org/2000/svg">
<path d="M9 42.75C9 43.9435 9.47411 45.0881 10.318 45.932C11.1619 46.7759 12.3065 47.25 13.5 47.25C14.6935 47.25 15.8381 46.7759 16.682 45.932C17.5259 45.0881 18 43.9435 18 42.75C18 41.5565 17.5259 40.4119 16.682 39.568C15.8381 38.7241 14.6935 38.25 13.5 38.25C12.3065 38.25 11.1619 38.7241 10.318 39.568C9.47411 40.4119 9 41.5565 9 42.75Z" stroke="#235418" stroke-width="2.25" stroke-linecap="round" stroke-linejoin="round"/>
<path d="M22.5 38.25H13.5V6.75H9" stroke="#235418" stroke-width="2.25" stroke-linecap="round" stroke-linejoin="round"/>
<path d="M13.5 11.25L45 13.5L43.3868 24.786M25.875 29.25H13.5M40.5 49.5L48.0375 42.111C48.4997 41.6625 48.8674 41.1259 49.1188 40.5329C49.3703 39.9399 49.5003 39.3026 49.5014 38.6585C49.5024 38.0144 49.3744 37.3767 49.1249 36.7829C48.8754 36.1891 48.5095 35.6513 48.0487 35.2013C47.1091 34.2807 45.8468 33.764 44.5314 33.7615C43.216 33.759 41.9517 34.2708 41.0085 35.1877L40.5045 35.6828L40.0027 35.1877C39.0632 34.2679 37.8014 33.7516 36.4865 33.7491C35.1716 33.7466 33.9078 34.258 32.9648 35.1743C32.5024 35.6226 32.1345 36.1591 31.8829 36.752C31.6313 37.3449 31.501 37.9822 31.4997 38.6263C31.4985 39.2704 31.6263 39.9082 31.8756 40.502C32.1249 41.0959 32.4906 41.6338 32.9513 42.084L40.5 49.5Z" stroke="#235418" stroke-width="2.25" stroke-linecap="round" stroke-linejoin="round"/>
</svg>
