<svg width="19" height="18" viewBox="0 0 19 18" fill="none" xmlns="http://www.w3.org/2000/svg">
<path d="M2.75 9C2.75 9.88642 2.92459 10.7642 3.26381 11.5831C3.60303 12.4021 4.10023 13.1462 4.72703 13.773C5.35382 14.3998 6.09794 14.897 6.91689 15.2362C7.73583 15.5754 8.61358 15.75 9.5 15.75C10.3864 15.75 11.2642 15.5754 12.0831 15.2362C12.9021 14.897 13.6462 14.3998 14.273 13.773C14.8998 13.1462 15.397 12.4021 15.7362 11.5831C16.0754 10.7642 16.25 9.88642 16.25 9C16.25 7.20979 15.5388 5.4929 14.273 4.22703C13.0071 2.96116 11.2902 2.25 9.5 2.25C7.70979 2.25 5.9929 2.96116 4.72703 4.22703C3.46116 5.4929 2.75 7.20979 2.75 9Z" stroke="black" stroke-width="1.5" stroke-linecap="round" stroke-linejoin="round"/>
<path d="M9.5 5.25V9L11.75 11.25" stroke="black" stroke-width="1.5" stroke-linecap="round" stroke-linejoin="round"/>
</svg>
